<?xml version="1.0" encoding="UTF-8" standalone="no"?>
<!-- Created with Inkscape (http://www.inkscape.org/) -->

<svg
   xmlns:dc="http://purl.org/dc/elements/1.1/"
   xmlns:cc="http://creativecommons.org/ns#"
   xmlns:rdf="http://www.w3.org/1999/02/22-rdf-syntax-ns#"
   xmlns:svg="http://www.w3.org/2000/svg"
   xmlns="http://www.w3.org/2000/svg"
   xmlns:sodipodi="http://sodipodi.sourceforge.net/DTD/sodipodi-0.dtd"
   xmlns:inkscape="http://www.inkscape.org/namespaces/inkscape"
   width="1000"
   height="205.31186"
   viewBox="0 0 264.58333 54.322098"
   version="1.1"
   id="svg8"
   inkscape:version="0.92.4 (5da689c313, 2019-01-14)"
   sodipodi:docname="A.svg">
  <defs
     id="defs2">
    <linearGradient
       x1="0"
       y1="0"
       x2="1"
       y2="0"
       gradientUnits="userSpaceOnUse"
       gradientTransform="matrix(4.669686,8.4055186,8.4055186,-4.669686,54.994953,90.578699)"
       spreadMethod="pad"
       id="linearGradient6986">
      <stop
         style="stop-opacity:1;stop-color:#b7b9bb"
         offset="0"
         id="stop6982" />
      <stop
         style="stop-opacity:1;stop-color:#ffffff"
         offset="1"
         id="stop6984" />
    </linearGradient>
    <linearGradient
       x1="0"
       y1="0"
       x2="1"
       y2="0"
       gradientUnits="userSpaceOnUse"
       gradientTransform="matrix(4.6698386,8.4058238,8.4058238,-4.6698386,53.223739,91.562612)"
       spreadMethod="pad"
       id="linearGradient6966">
      <stop
         style="stop-opacity:1;stop-color:#b7b9bb"
         offset="0"
         id="stop6962" />
      <stop
         style="stop-opacity:1;stop-color:#ffffff"
         offset="1"
         id="stop6964" />
    </linearGradient>
    <linearGradient
       x1="0"
       y1="0"
       x2="1"
       y2="0"
       gradientUnits="userSpaceOnUse"
       gradientTransform="matrix(-0.2138924,3.850115,3.850115,0.2138924,58.304869,90.144017)"
       spreadMethod="pad"
       id="linearGradient6946">
      <stop
         style="stop-opacity:1;stop-color:#b7b9bb"
         offset="0"
         id="stop6942" />
      <stop
         style="stop-opacity:1;stop-color:#77787b"
         offset="1"
         id="stop6944" />
    </linearGradient>
    <clipPath
       clipPathUnits="userSpaceOnUse"
       id="clipPath6756">
      <path
         d="m 49.68,82.128 h 199.44 v 48.163 H 49.68 Z"
         id="path6754"
         inkscape:connector-curvature="0" />
    </clipPath>
  </defs>
  <sodipodi:namedview
     id="base"
     pagecolor="#ffffff"
     bordercolor="#666666"
     borderopacity="1.0"
     inkscape:pageopacity="0.82352941"
     inkscape:pageshadow="2"
     inkscape:zoom="0.7"
     inkscape:cx="562.77929"
     inkscape:cy="-276.74056"
     inkscape:document-units="px"
     inkscape:current-layer="layer1"
     showgrid="false"
     units="px"
     inkscape:window-width="1920"
     inkscape:window-height="1017"
     inkscape:window-x="1912"
     inkscape:window-y="-8"
     inkscape:window-maximized="1"
     inkscape:pagecheckerboard="true"
     fit-margin-top="0"
     fit-margin-left="0"
     fit-margin-right="0"
     fit-margin-bottom="0" />
  <metadata
     id="metadata5">
    <rdf:RDF>
      <cc:Work
         rdf:about="">
        <dc:format>image/svg+xml</dc:format>
        <dc:type
           rdf:resource="http://purl.org/dc/dcmitype/StillImage" />
        <dc:title></dc:title>
      </cc:Work>
    </rdf:RDF>
  </metadata>
  <g
     inkscape:label="Layer 1"
     inkscape:groupmode="layer"
     id="layer1"
     transform="translate(383.15406,-2.0632816)">
    <g
       transform="matrix(1.0215632,0,0,1.0069962,-350.2536,23.470727)"
       id="g3160"
       style="fill:#035496;fill-opacity:1">
      <path
         inkscape:connector-curvature="0"
         id="path3162"
         style="fill:#035496;fill-opacity:1;fill-rule:nonzero;stroke:none"
         d="M 0,0 V 5.137 C -5.936,3.62 -10.666,2.86 -14.188,2.86 c -2.008,0 -3.604,0.203 -4.787,0.6 -1.187,0.399 -1.778,0.929 -1.778,1.587 0,0.507 0.429,0.99 1.288,1.445 0.859,0.455 2.945,1.045 6.255,1.768 3.31,0.726 5.959,1.398 7.945,2.021 1.986,0.623 3.7,1.5 5.142,2.63 1.442,1.132 2.163,2.562 2.163,4.29 0,2.468 -1.576,4.431 -4.729,5.894 -3.152,1.462 -7.303,2.191 -12.452,2.191 -5.557,0 -10.943,-0.857 -16.158,-2.574 v -5.735 c 2.994,1.19 5.649,2.055 7.959,2.6 2.31,0.544 4.759,0.814 7.348,0.814 4.386,0 6.579,-0.807 6.579,-2.423 0,-0.551 -0.443,-1.07 -1.327,-1.559 -0.886,-0.487 -2.998,-1.098 -6.336,-1.829 -3.339,-0.731 -5.986,-1.401 -7.938,-2.012 -1.955,-0.61 -3.641,-1.482 -5.063,-2.612 -1.421,-1.132 -2.129,-2.58 -2.129,-4.345 0,-2.288 1.546,-4.132 4.642,-5.538 3.093,-1.404 7.235,-2.108 12.421,-2.108 4.78,0 9.827,0.679 15.143,2.035" />
    </g>
    <g
       transform="matrix(1.0215632,0,0,1.0069962,-311.12436,21.766484)"
       id="g3166"
       style="fill:#035496;fill-opacity:1">
      <path
         inkscape:connector-curvature="0"
         id="path3168"
         style="fill:#035496;fill-opacity:1;fill-rule:nonzero;stroke:none"
         d="M 0,0 -12.106,12.502 8.826,26.637 H -5.071 L -23.911,14.149 V 26.637 H -35.024 V 0 h 11.113 V 11.995 L -12.217,0 Z" />
    </g>
    <g
       transform="matrix(1.0215632,0,0,1.0069962,-294.14444,48.589527)"
       id="g3172"
       style="fill:#ed2e24;fill-opacity:1">
      <path
         inkscape:connector-curvature="0"
         id="path3174"
         style="fill:#ed2e24;fill-opacity:1;fill-rule:nonzero;stroke:none"
         d="m 0,0 v -12.267 l -15.534,-14.37 h 11.806 l 9.285,8.424 33.575,-27.99 V -35.44 L 11.113,-12.365 V 0 Z" />
    </g>
    <g
       transform="matrix(1.0215632,0,0,1.0069962,-254.18223,27.85617)"
       id="g3178"
       style="fill:#035496;fill-opacity:1">
      <path
         inkscape:connector-curvature="0"
         id="path3180"
         style="fill:#035496;fill-opacity:1;fill-rule:nonzero;stroke:none"
         d="m 0,0 v 18.103 c 0,6.818 -5.266,10.228 -15.792,10.228 -1.003,0 -2.087,-0.033 -3.261,-0.096 v -5.236 c 0.599,0.063 1.164,0.094 1.696,0.094 4.161,0 6.243,-1.631 6.243,-4.89 V 9.209 Z" />
    </g>
    <g
       transform="matrix(1.0215632,0,0,1.0069962,-220.82408,38.617467)"
       id="g3184"
       style="fill:#035496;fill-opacity:1">
      <path
         inkscape:connector-curvature="0"
         id="path3186"
         style="fill:#035496;fill-opacity:1;fill-rule:nonzero;stroke:none"
         d="M 0,0 -7.255,-10.367 -13.783,0 Z M -0.864,-16.734 18.885,9.903 H 6.929 L 3.265,4.667 h -19.988 l -3.301,5.236 h -11.782 l 17.853,-26.637 z" />
    </g>
    <g
       transform="matrix(1.0215632,0,0,1.0069962,-163.55629,40.335877)"
       id="g3190"
       style="fill:#035496;fill-opacity:1">
      <path
         inkscape:connector-curvature="0"
         id="path3192"
         style="fill:#035496;fill-opacity:1;fill-rule:nonzero;stroke:none"
         d="m 0,0 v 5.865 c -5.583,1.782 -11.434,2.673 -17.551,2.673 -7.932,0 -14.246,-1.306 -18.945,-3.917 -4.698,-2.61 -7.048,-5.829 -7.048,-9.658 0,-3.823 2.473,-7.071 7.423,-9.741 4.95,-2.669 11.414,-4.005 19.398,-4.005 6.363,0 11.75,0.787 16.157,2.357 v 5.954 c -5.41,-1.821 -10.53,-2.733 -15.363,-2.733 -4.75,0 -8.631,0.757 -11.643,2.269 -3.014,1.511 -4.518,3.436 -4.518,5.776 0,2.353 1.485,4.296 4.463,5.825 2.975,1.53 6.788,2.295 11.439,2.295 2.303,0 4.521,-0.182 6.655,-0.548 C -7.401,2.047 -4.222,1.244 0,0" />
    </g>
    <g
       transform="matrix(1.0215632,0,0,1.0069962,-123.8992,21.766484)"
       id="g3196"
       style="fill:#035496;fill-opacity:1">
      <path
         inkscape:connector-curvature="0"
         id="path3198"
         style="fill:#035496;fill-opacity:1;fill-rule:nonzero;stroke:none"
         d="M 0,0 -14.391,12.502 5.216,26.637 H -8.68 L -26.196,14.149 V 26.637 H -37.311 V 0 h 11.115 V 11.995 L -12.218,0 Z" />
    </g>
    <g
       transform="matrix(1.0215632,0,0,1.0069962,-238.52164,12.9317)"
       id="g3202"
       style="fill:#ed2e24;fill-opacity:1">
      <path
         inkscape:connector-curvature="0"
         id="path3204"
         style="fill:#ed2e24;fill-opacity:1;fill-rule:nonzero;stroke:none"
         d="M 0,0 -26.488,21.572 -26.516,11.71 -0.014,-10.487 Z" />
    </g>
  </g>
</svg>
